<?xml version="1.0" encoding="utf-8"?>
<!-- Generator: Adobe Illustrator 26.0.1, SVG Export Plug-In . SVG Version: 6.00 Build 0)  -->
<svg version="1.1" xmlns="http://www.w3.org/2000/svg" xmlns:xlink="http://www.w3.org/1999/xlink" x="0px" y="0px"
	 viewBox="0 0 1024 1024" style="enable-background:new 0 0 1024 1024;" xml:space="preserve">
<style type="text/css">
	.st0{fill:#2D855B;stroke:#00A651;stroke-width:0.25;stroke-miterlimit:10;}
	.st1{fill:#FFFFFF;stroke:#00A651;stroke-width:0.25;stroke-miterlimit:10;}
	.st2{fill:#2D855B;stroke:#00A651;stroke-width:0.5;stroke-miterlimit:10;}
</style>
<g id="Layer_1">
	<g>
		<path class="st0" d="M428.35,235.74c7.97-2.98,14.88-4.58,19.98-5.49c8.24-1.47,13.65-2.44,20.79-1.12
			c3.75,0.69,10.45,1.93,16.42,7.24c5.07,4.51,7.07,9.7,8.83,14.44c4.16,11.17,3.93,20.91,3.82,24.14
			c-1.08,32.3-9.28,59.81-9.28,59.81c-4.91,16.46-12.7,38.24-25.35,62.8c-6.28,11.76-16.36,30.41-29.22,53.19
			c-25.99,46.05-32.13,53.69-41.29,76.5c-14.74,36.72-17.02,62.27-17.61,71.28c-0.74,11.29-1.53,24.85,2.09,42.2
			c6.16,29.55,20.81,49.47,26.84,57c22.09,27.53,49.13,38.86,61.18,43.08c0,0,37.37,8.53,43.37,8.86c5.99,0.33,21.18,0,21.18,0
			s2.33-0.43,5.91-1.1c0,0,7.83-1.48,13.45-2.58c19.79-3.89,33.34-9.05,33.34-9.05c17.33-6.61,29.14-15.58,34.84-19.98
			c15.19-11.72,25.43-24.36,31.96-33.96c4.84-11.51,10.39-27.7,13.42-47.54c0.06-0.39,0.6-4.4,0.85-6.53
			c0.28-2.4,0.43-3.6,0.47-4.06c0.49-4.99,0.8-10.17,0.9-15.53c0.13-7.07-0.03-18.99-2.31-33.82c-1.23-8.01-3.09-16.88-5.85-26.28
			c-2.45-8.34-6.59-20.45-20.31-46.61c-26.04-49.67-35.71-52.99-54.6-93.56c0,0-17.17-36.85-17.47-60.78
			c-0.15-11.77,0.49-27,0.49-27c0,0,0.25-6.12,0.62-11.99c2.12-33.7,18.74-73.37,10.11-111.75c-1.52-6.78-4.66-17.44-11.94-29.94
			c-2.55-2.72-7.26-6.95-14.28-9.27c-5.18-1.71-9.35-1.62-15.32-1.5c-3.02,0.06-7.9,0.19-14.01,1.38c-0.36,0.07-3.7,0.73-6.63,1.62
			c-12.94,3.92-21.48,12.82-21.48,12.82c-8.85,9.23-11.35,19.78-12.15,24.31c-6.22,1.14-15.45,3.65-25.14,9.66
			C439.45,216.23,431.62,229.32,428.35,235.74z"/>
		<path class="st1" d="M508.76,201.27c-1.52,2.8-1.6,3.66-1.26,4.27c1.3,2.35,8.6,0.5,10.25,0.06c1.61-0.62,5.82-2.5,8.32-6.99
			c1.78-3.2,3.3-8.78,1-10.65c-2.41-1.96-7.73,1.16-9.16,2C513.48,192.56,511.51,196.19,508.76,201.27z"/>
		<path class="st1" d="M469.89,215.51c-4.71,1.82-8.11,3.32-8.91,3.91c-0.05,0.04-0.12,0.09-0.11,0.15
			c0.06,0.34,3.06,0.02,8.85-0.57c2.11-0.22,4.21-0.49,6.33-0.67c4.6-0.39,6.95-0.38,8.41-2.08c0.19-0.22,0.92-1.07,0.67-1.75
			c-0.07-0.2-0.41-0.85-2.66-1C478.65,213.26,472.94,214.67,469.89,215.51z"/>
		<path class="st0" d="M548.39,157.92c0.11-0.23,0.28-0.58,0.49-1.02c6.2-12.98,10.11-23.67,11.93-28.91
			c2.29-6.59,3.73-11.51,5.73-18.41c1.52-5.22,2.5-9.12,3.87-14.19c3.5-12.99,4.76-19.62,3.44-24.47
			c-2.74-10.04-11.13-11.09-10.53-16.61c0.9-8.35,21.69-19.07,33.81-10.66c11.43,7.93,9.34,28.76,5.61,30.37
			c-2.47,1.07-5.43-2.89-11.51-1.74c-0.99,0.23-2.43,0.65-4.02,1.47c-9.29,4.76-9.28,15.61-14.51,33.1
			c-2.84,9.49-14.33,44.68-15.78,48.81c-0.02,0.06-0.05,0.15-0.09,0.27c-0.54,1.64-1.23,3.72-0.44,5.13c0,0,0.37,0.65,1.14,1.07
			c2.79,1.53,11.86-7.93,15.85-12.14c9.77-10.32,14.39-15.97,24.26-25.49c0.51-0.49,17-16.39,23.31-27.42
			c0.97-1.69,2.11-3.98,2.05-6.91c-0.11-5.48-4.31-6.94-3.97-10.17c0.64-6.08,16.43-9.64,27.93-9.67c5.08-0.01,7.88,0.02,10.63,1.96
			c7.3,5.17,8.29,19.64,2.13,25.38c-3.09,2.88-7.56,3.05-16.51,3.4c-8.06,0.32-7.62-0.96-11.53-0.38
			c-8.01,1.19-14.66,8.53-27.99,23.18c-5.1,5.6-6.17,6.61-9.04,9.63c-1.05,1.11-2,2.12-2.91,3.09c0,0-2.24,2.41-4.46,4.87
			c-4.41,4.89-23.02,25.49-20.84,27.87c0.15,0.16,0.51,0.37,1.61,0.05c9.36-6.81,17.71-11.06,23.76-13.73
			c25.82-11.38,54.86-13.72,56.1-23.97c0.24-1.93-0.5-4.31,1.17-6.99c2.02-3.26,5.92-4.27,9.47-5.18c1.03-0.27,5.64-1.39,12.01-0.48
			c5.27,0.75,8.44,1.21,9.99,3.66c2.11,3.36-0.22,8.25-2.33,12.65c-1.57,3.27-2.99,6.26-5.99,8.16c-4.81,3.04-10.77,1.45-13.52,0.85
			c-9.64-2.1-18.56,0.04-36.42,4.31c-18.11,4.34-30.79,12-34.93,14.63c-7.94,5.04-13.94,10.27-18.1,14.34
			c0.11,0.29,0.21,0.58,0.32,0.88"/>
		<path class="st2" d="M545.16,156.47"/>
		<path class="st0" d="M664.24,625.83c1.54-3.19,3.75-8.38,5.18-15.07c1.32-6.19,1.37-10.76,1.46-12.84
			c0.68-15.71,10.68-39.28,27.14-47.89c3.31-1.73,12.66-5.89,13.64-4.36c0.15,0.23,0.07,0.54-0.01,0.77
			c1.29,6.88,2.42,17.85-0.66,30.44c-2.7,11.04-7.49,18.63-11.91,25.28c-8.03,12.06-20.89,30.08-39.84,52.02"/>
		<path class="st0" d="M657.11,655.62c0.4-0.43,0.79-0.86,1.19-1.29c12.32-13.26,25.54-24.99,39.45-35.36
			c4.79-3.89,11.53-8.42,20.31-11.79c3.6-1.38,7.01-2.37,10.13-3.08c0,0,6.02-1.82,15.09-1.99c4.04-0.07,4.79,0.29,5.26,0.79
			c3.33,3.57-4.82,16.53-9.93,23.13c-3.55,4.58-9.47,11.08-18.86,17.07c-2.3,1.34-5.96,3.36-10.64,5.41
			c-3.61,1.59-6.75,2.72-9.04,3.49c-1.69,0.56-2.96,0.94-3.25,1.03c-3.63,1.09-15.03,4.94-41.34,14.15
			c4.88-0.31,8.73-0.89,11.37-1.37c2.35-0.43,3.83-0.8,7.82-1.53c3.05-0.56,5.63-0.98,7.04-1.2c6.98-1.08,12.55-1.41,20.02-1.84
			c3.39-0.19,7.27-0.37,12.31,0.2c6.36,0.72,7.05,1.79,7.23,2.28c1.11,2.91-6.65,8.22-7.76,8.97c-1.54,1.58-4.06,3.94-7.54,6.22
			c-16.53,10.81-36.12,7.68-39.84,7.08c-5.89-0.94-16.31-3.52-16.32-3.48v0"/>
		<path class="st0" d="M437.16,727.31c5.48,18.42,10.43,41,12.45,67.02c3.8,49.05-4.4,89.81-12.45,117.18
			c-1.45,1.77-3.72,4.23-6.94,6.55c-7.88,5.67-15.27,6.04-25.12,7.43c0,0-37.5,5.32-43.22,16.72c-0.03,0.07-0.1,0.19-0.07,0.34
			c0.63,4.1,59.02-1.97,61.6-3.52c2.65-1.59-5.82,10.06-5.82,10.06l-2.65,4.76c1.76-0.64,4.38-1.63,7.5-3.02
			c3.91-1.74,6.48-3.16,7.41-3.64c4.92-2.54,16.37-6.01,25.41-1.72c4.06,1.93,14.32,8.57,17.07,8.47c0.81-0.03,3.24-0.12,2.43-0.09
			c-2.82-3.93-7-10.57-9.84-19.5c-6.37-20.06-0.24-33.71,11.91-81.4c5.08-19.94,9.5-40.04,14.34-60.05
			c4.69-19.39,10.94-36.03,15.94-50.09"/>
		<path class="st0" d="M603.49,726.29c-5.48,18.42-10.43,41-12.45,67.02c-3.8,49.05,4.4,89.81,12.45,117.18
			c1.45,1.77,3.72,4.23,6.94,6.55c7.88,5.67,15.27,6.04,25.12,7.43c0,0,37.5,5.32,43.22,16.72c0.03,0.07,0.1,0.19,0.07,0.34
			c-0.63,4.1-59.02-1.97-61.6-3.52c-2.65-1.59,5.82,10.06,5.82,10.06l2.65,4.76c-1.76-0.64-4.38-1.63-7.5-3.02
			c-3.91-1.74-6.48-3.16-7.41-3.64c-4.92-2.54-16.37-6.01-25.41-1.72c-4.06,1.93-14.32,8.57-17.07,8.47
			c-0.81-0.03-3.24-0.12-2.43-0.09c2.82-3.93,7-10.57,9.84-19.5c6.37-20.06,0.24-33.71-11.91-81.4
			c-5.08-19.94-9.5-40.04-14.34-60.05c-4.69-19.39-10.94-36.03-15.94-50.09"/>
	</g>
</g>
<g id="Layer_2">
</g>
<g id="Layer_3">
</g>
</svg>
